PathFileType	4	(X/Y/Z)	C:/Users/opensim2020/Desktop/walking_exp_matlab/subject02_walking11_straight_04.trc																																																																																																																												
DataRate	CameraRate	NumFrames	NumMarkers	Units	OrigDataRate	OrigDataStartFrame	OrigNumFrames																																																																																																																								
100	100	8	42	mm	100	3397	227																																																																																																																								
Frame#	Time	LFHD			RFHD			LBHD			RBHD			C7			T10			CLAV			STRN			RBAK			LSHO			LUPA			LELB			LFRM			LWRA			LWRB			LFIN			RSHO			RUPA			RELB			RFRM			RWRA			RWRB			RFIN			LASI			RASI			LPSI			RPSI			LTHI			LKNE			LTIB			LANK			LHEE			LTOE			RTHI			RKNE			RTIB			RANK			RHEE			RTOE			*39			*40			*41		
		X1	Y1	Z1	X2	Y2	Z2	X3	Y3	Z3	X4	Y4	Z4	X5	Y5	Z5	X6	Y6	Z6	X7	Y7	Z7	X8	Y8	Z8	X9	Y9	Z9	X10	Y10	Z10	X11	Y11	Z11	X12	Y12	Z12	X13	Y13	Z13	X14	Y14	Z14	X15	Y15	Z15	X16	Y16	Z16	X17	Y17	Z17	X18	Y18	Z18	X19	Y19	Z19	X20	Y20	Z20	X21	Y21	Z21	X22	Y22	Z22	X23	Y23	Z23	X24	Y24	Z24	X25	Y25	Z25	X26	Y26	Z26	X27	Y27	Z27	X28	Y28	Z28	X29	Y29	Z29	X30	Y30	Z30	X31	Y31	Z31	X32	Y32	Z32	X33	Y33	Z33	X34	Y34	Z34	X35	Y35	Z35	X36	Y36	Z36	X37	Y37	Z37	X38	Y38	Z38	X39	Y39	Z39	X40	Y40	Z40	X41	Y41	Z41	X42	Y42	Z42
																																																																																																																															
171	1.7	542.53064	1744.77563	1004.10413	548.37384	1725.36987	1146.25464	410.56747	1672.82227	1002.34283	403.90179	1652.41895	1144.01733	361.5473	1529.30579	1084.89343	311.06595	1253.60803	1101.83496	501.50565	1463.71069	1058.04919	556.26263	1292.60266	1073.51782	315.06339	1359.13855	1165.27649	406.05304	1497.30029	899.3465	360.91287	1299.94666	828.75958	336.76788	1162.68237	827.25922	311.47897	1036.06982	808.10968	339.97037	898.77332	816.66394	289.4567	914.13141	799.52686	290.1088	847.40515	789.32184	465.24875	1508.05725	1259.37744	481.11459	1324.25378	1361.05798	530.19165	1185.82227	1388.30103	596.90082	1084.51855	1401.45911	677.91901	979.31885	1374.12817	642.65808	963.01453	1414.57129	699.66785	918.56067	1411.41565	543.73071	994.03534	959.84241	545.68616	978.47858	1215.24109	333.88351	1035.70752	1041.85913	330.96579	1037.03589	1157.32336	539.2912	692.22449	886.32471	570.0141	495.59775	911.74744	529.82404	306.26096	918.96515	555.36517	84.19974	941.06177	538.0481	56.47446	1001.54163	700.70508	50.49577	892.24579	453.31839	671.29846	1268.23572	435.51147	462.65228	1219.03223	380.8812	281.1106	1218.73938	350.3121	91.13783	1172.47888	314.87088	38.75417	1114.53052	499.30942	35.77946	1194.77612	445.62521	1811.41626	1098.01978	NaN	NaN	NaN	NaN	NaN	NaN
172	1.71	549.61139	1743.40417	1002.3465	556.26355	1724.79712	1144.73254	417.59558	1671.95667	1001.38715	411.68713	1652.03406	1143.22852	369.04645	1528.6366	1084.48779	317.99509	1253.10474	1101.33386	508.83972	1462.88953	1057.6134	563.61487	1291.85706	1073.40088	322.38916	1358.70776	1165.09753	413.14075	1496.16931	898.98279	367.36188	1298.96875	828.73254	342.81485	1161.90027	827.31403	316.24915	1035.5675	807.65063	344.39328	897.97961	815.23724	293.14786	914.00873	799.00018	293.68311	847.2348	788.4054	473.07086	1507.75391	1258.78308	489.92303	1324.1543	1360.66675	540.08746	1185.90784	1387.6217	607.33966	1085.39441	1400.79248	689.3515	980.84039	1373.43555	654.21735	964.0824	1413.92542	711.44427	920.03333	1410.48096	550.9259	993.19348	959.54883	552.12476	978.08618	1214.95459	340.87637	1034.74658	1041.16113	337.42371	1036.21069	1156.52954	545.6015	690.99109	886.25342	578.79517	494.77277	912.40436	546.18219	303.71948	918.38135	579.86017	82.80302	939.57324	563.93665	54.34481	1000.19604	726.7149	52.85459	890.94128	457.59399	670.94342	1267.96448	438.35049	462.07077	1218.62427	382.23492	281.2485	1218.48633	350.56137	91.33393	1172.29529	314.86621	38.56192	1114.03027	499.26102	35.70693	1194.94543	453.61511	1810.94666	1096.78369	NaN	NaN	NaN	NaN	NaN	NaN
173	1.72	557.2312	1742.04797	1000.98218	564.12793	1724.08081	1143.09412	424.97891	1670.94861	1000.55688	419.34076	1651.49744	1142.46436	376.53903	1527.94348	1083.98181	324.99405	1252.47253	1100.76941	516.34021	1462.00098	1057.04822	570.85736	1290.91467	1073.24951	329.6915	1358.20679	1164.86487	420.34567	1495.03076	898.54413	374.46228	1297.99536	828.61761	349.04465	1160.99072	827.13208	322.33295	1035.05249	807.41083	349.42984	897.36572	813.72095	298.11929	913.69617	798.4649	297.70135	846.95691	787.50598	480.9212	1507.20081	1258.23547	498.564	1323.77222	1359.99841	549.77521	1185.98352	1387.11841	617.92523	1085.73987	1400.14246	700.13763	981.57977	1372.30774	665.38202	964.86774	1413.27942	722.96808	921.19641	1409.4939	558.18787	992.27289	959.26917	558.65588	977.67242	1214.65771	347.99033	1033.72852	1040.38379	343.91266	1035.20483	1155.6145	552.16992	689.89093	886.14807	587.84808	493.94684	912.80676	562.20636	301.68784	917.40515	603.73212	82.0491	938.25208	587.91553	53.21481	998.75909	751.54529	55.50423	890.19751	462.04602	670.55505	1267.72998	441.37732	461.67715	1218.43726	383.77753	281.34573	1218.16602	350.82056	91.53001	1172.07092	315.35254	38.6264	1113.84888	499.25089	35.70601	1195.07556	461.49588	1810.26501	1095.17676	NaN	NaN	NaN	NaN	NaN	NaN
174	1.73	564.75647	1740.80713	999.22272	571.98792	1723.31689	1141.47021	432.20154	1669.60413	999.44781	427.20432	1651.00574	1141.41016	384.04919	1527.14172	1083.33276	332.03238	1251.75024	1100.07202	523.76831	1461.02917	1056.44849	577.92334	1289.77368	1072.92188	337.04068	1357.62097	1164.43018	427.77838	1493.84302	897.87152	381.49289	1296.76794	828.27466	355.16101	1160.08887	826.66711	327.728	1034.37097	806.79236	354.55368	896.34204	812.33911	302.75607	913.08319	797.69019	302.31534	846.49896	786.73572	488.51709	1506.75281	1257.49072	507.12628	1323.32031	1359.31885	559.28564	1185.86414	1386.46765	627.85016	1086.19922	1399.24536	710.84906	982.40393	1371.32922	676.32483	965.45508	1412.31909	734.15918	922.17896	1408.44006	565.49976	991.35388	958.99731	565.28986	977.21368	1214.45471	355.24643	1032.66882	1039.53809	350.43726	1034.14294	1154.64026	558.8985	688.56024	885.81378	597.09631	493.24847	912.72504	577.75848	300.099	916.88672	626.14307	81.85598	937.01636	610.7887	52.78196	997.45795	775.24237	58.42883	890.06781	466.70792	670.11841	1267.35999	444.63675	461.3913	1218.55127	385.49362	281.41656	1217.9281	351.1366	91.75668	1171.90588	315.44073	38.81768	1113.68115	499.23325	35.64033	1195.19519	469.28476	1809.41064	1093.55371	NaN	NaN	NaN	NaN	NaN	NaN
175	1.74	572.065	1739.73193	997.33197	579.84509	1722.47888	1139.77405	439.63373	1668.4967	998.27344	435.03076	1650.36255	1140.30078	391.57327	1526.23743	1082.48145	339.23825	1250.97119	1099.25171	531.16315	1459.96765	1055.72278	585.42352	1288.88782	1072.55884	344.31851	1356.93994	1163.82898	435.46494	1492.48462	897.15082	388.62137	1295.87769	827.5603	362.18875	1159.0979	826.13208	333.64664	1033.41528	806.19336	360.32047	895.5061	810.95001	308.42288	912.60406	796.8374	307.14935	845.94818	785.93945	496.0899	1506.02991	1256.64026	515.51233	1322.70178	1358.4895	568.62952	1185.58337	1385.68958	637.97699	1086.14404	1398.42517	721.25397	982.97809	1370.1936	687.01508	965.87775	1411.16504	744.9317	923.01678	1407.26758	572.73688	990.32251	958.85736	571.99713	976.62915	1214.3114	362.55795	1031.59058	1038.63062	357.01675	1033.08215	1153.62927	565.31824	687.43329	885.26764	606.67188	492.60919	912.64728	592.8172	298.94672	915.76178	646.92493	82.01887	936.0321	632.15887	52.93129	996.26166	797.90283	61.31821	890.59784	471.5806	669.60693	1266.91748	448.08035	460.98978	1218.31238	387.25549	281.45462	1217.65723	351.42682	91.97875	1171.7207	315.29401	39.19497	1113.73987	499.24734	35.61788	1195.28479	477.19788	1808.54102	1091.75598	NaN	NaN	NaN	NaN	NaN	NaN
176	1.75	579.64136	1738.31396	995.49878	587.68762	1721.60181	1138.03967	447.23459	1667.54443	996.98657	442.75186	1649.61511	1139.09351	399.06927	1525.33203	1081.57239	346.47125	1250.10034	1098.39954	538.58124	1458.88843	1054.88879	592.72784	1287.73865	1072.04517	351.77673	1356.19153	1163.02417	443.06915	1491.34802	896.1944	395.41061	1294.75977	826.68793	369.49155	1157.85364	825.55872	339.84351	1032.76672	805.20581	365.34515	894.43665	809.58423	313.70956	911.80176	795.74146	312.22491	845.09027	785.08221	503.61908	1505.2146	1255.73413	523.78253	1321.96448	1357.68689	577.66449	1185.11597	1384.78687	647.53656	1086.07654	1397.27197	731.44397	983.36328	1369.02234	697.26941	965.97455	1410.08337	755.55695	923.49408	1406.04358	580.22394	989.32788	958.58661	578.81403	975.9361	1214.19324	369.89337	1030.54651	1037.68481	363.76056	1032.02051	1152.50879	572.03674	686.23523	884.78326	616.57483	491.99249	912.58667	607.34198	298.2753	914.93341	667.00928	82.58572	934.92999	652.49548	53.33223	994.9043	819.16553	64.10316	891.57971	476.65686	669.00354	1266.44263	451.65338	460.46121	1218.06848	389.18964	281.49481	1217.50195	351.78793	92.18366	1171.58105	315.49487	39.295	1113.4292	499.28345	35.58007	1195.41614	485.02963	1807.6355	1089.97583	NaN	NaN	NaN	NaN	NaN	NaN
177	1.76	587.24774	1736.93628	993.65558	595.53497	1720.66455	1136.22656	455.08301	1666.30872	995.57513	450.55698	1649.00244	1137.79749	406.56311	1524.50989	1080.67346	353.90799	1249.17944	1097.35718	546.17712	1457.83899	1053.94971	600.1947	1286.61523	1071.41589	359.14258	1355.09802	1161.58008	450.90588	1490.13037	895.11511	403.64023	1293.49902	825.70294	376.06815	1156.94067	824.31042	346.1893	1031.82959	804.43713	373.0177	893.69867	808.2533	320.30679	911.104	794.61554	317.74121	844.05316	784.25128	511.08664	1504.28125	1254.78857	531.87201	1320.97095	1356.52783	586.45984	1184.61682	1384.14563	656.91931	1085.99109	1396.18469	741.34705	983.51782	1367.76489	707.3772	966.05237	1408.9635	765.83813	923.75153	1404.70154	587.68732	988.24677	958.51581	585.74658	975.08929	1214.04407	377.28687	1029.51086	1036.72998	370.63721	1031.0813	1151.42065	579.89508	685.25696	884.09943	626.7218	491.62582	912.39569	621.53748	297.83643	914.05542	686.25977	83.37508	933.9397	671.0589	53.83107	993.79852	838.92145	66.69032	892.87665	481.98022	668.35242	1265.8988	455.33734	459.85553	1217.8407	391.18793	281.53943	1217.26953	352.04605	92.54545	1171.52014	315.50583	39.71405	1113.40015	499.31009	35.48827	1195.51941	493.09698	1806.95447	1088.3739	NaN	NaN	NaN	NaN	NaN	NaN
178	1.77	595.05145	1735.50916	992.11395	603.49933	1719.58984	1134.48743	462.11893	1665.12085	994.1496	458.27533	1648.3092	1136.49292	414.17612	1523.46863	1079.54041	361.28424	1248.29211	1096.33997	553.83838	1456.70447	1052.9469	607.68127	1285.57336	1070.68469	366.43655	1354.41711	1160.84033	458.72263	1488.88696	893.96106	411.06223	1292.38391	824.48767	383.40845	1155.9032	823.1604	353.33771	1030.96899	802.9223	378.0957	892.21753	807.13013	326.50415	910.29907	793.3183	324.12894	843.17047	783.23993	518.52625	1503.29089	1253.66333	539.76855	1319.90112	1355.43384	595.20288	1183.75305	1382.63049	666.12689	1085.55164	1394.92993	751.04492	983.57086	1366.41528	717.12567	965.86707	1407.37878	775.75867	923.87091	1403.34216	595.26581	987.10999	958.27704	592.67316	974.09009	1213.87463	384.58771	1028.50964	1035.78613	377.72809	1030.17383	1150.40698	588.62494	684.67969	883.37085	636.54785	491.06674	912.38007	635.01196	297.40091	913.27179	703.76367	84.14792	933.11163	688.47955	54.28001	992.71204	857.41711	69.21997	894.19501	487.49155	667.63159	1265.26978	459.12823	459.25653	1217.48523	393.33365	281.55621	1216.81604	352.46371	92.8339	1171.38281	315.63235	40.07646	1113.24243	499.42865	35.1516	1195.50342	500.87152	1805.91626	1086.27747	-2845.81226	1034.09106	3356.91895	NaN	NaN	NaN
